<svg width="129" height="42" viewBox="0 0 129 42" fill="none" xmlns="http://www.w3.org/2000/svg">
<path d="M18 19.09C13.27 14.7 6.96 12 0 12V34C6.96 34 13.27 36.7 18 41.09C22.73 36.7 29.04 34 36 34V12C29.04 12 22.73 14.7 18 19.09ZM18 12C21.31 12 24 9.31 24 6C24 2.69 21.31 0 18 0C14.69 0 12 2.69 12 6C12 9.31 14.69 12 18 12Z" fill="#B66DFF"/>
<path d="M54.8789 25.9863V33H50.7773V13.0938H58.543C60.0378 13.0938 61.3503 13.3672 62.4805 13.9141C63.6198 14.4609 64.4948 15.2402 65.1055 16.252C65.7161 17.2546 66.0215 18.3984 66.0215 19.6836C66.0215 21.6341 65.3516 23.1745 64.0117 24.3047C62.681 25.4258 60.8353 25.9863 58.4746 25.9863H54.8789ZM54.8789 22.6641H58.543C59.6276 22.6641 60.4525 22.4089 61.0176 21.8984C61.5918 21.388 61.8789 20.6589 61.8789 19.7109C61.8789 18.7357 61.5918 17.9473 61.0176 17.3457C60.4434 16.7441 59.6504 16.4342 58.6387 16.416H54.8789V22.6641ZM79.0207 25.7129H75.7531V33H71.6516V13.0938H79.048C81.3996 13.0938 83.2134 13.6178 84.4895 14.666C85.7655 15.7142 86.4035 17.1953 86.4035 19.1094C86.4035 20.4674 86.1073 21.6022 85.5148 22.5137C84.9315 23.416 84.0428 24.1361 82.8488 24.6738L87.1555 32.8086V33H82.7531L79.0207 25.7129ZM75.7531 22.3906H79.0617C80.0917 22.3906 80.8892 22.1309 81.4543 21.6113C82.0194 21.0827 82.302 20.3581 82.302 19.4375C82.302 18.4987 82.0331 17.7604 81.4953 17.2227C80.9667 16.6849 80.1509 16.416 79.048 16.416H75.7531V22.3906ZM108.522 33H104.42L96.4359 19.9023V33H92.3344V13.0938H96.4359L104.434 26.2188V13.0938H108.522V33ZM119.005 29.7051H127.714V33H114.904V13.0938H119.005V29.7051Z" fill="#B66DFF"/>
</svg>
