<svg width="700" height="700" viewBox="0 0 700 700" fill="none" xmlns="http://www.w3.org/2000/svg">
<rect width="700" height="700" fill="#F9F9F9"/>
<path d="M442.113 115.003C418.724 89.2061 386.057 75 350 75C313.751 75 280.975 89.1202 257.695 114.758C234.162 140.677 222.696 175.904 225.388 213.943C230.724 288.988 286.624 350.037 350 350.037C413.376 350.037 469.179 289.001 474.6 213.967C477.328 176.272 465.79 141.119 442.113 115.003V115.003ZM561.533 625.073H138.467C132.93 625.147 127.446 623.958 122.414 621.594C117.383 619.23 112.931 615.75 109.382 611.407C101.569 601.867 98.4204 588.84 100.752 575.665C110.896 518.177 142.554 469.886 192.312 435.986C236.518 405.891 292.514 389.328 350 389.328C407.486 389.328 463.482 405.903 507.688 435.986C557.446 469.874 589.104 518.165 599.248 575.653C601.58 588.827 598.431 601.855 590.618 611.395C587.07 615.74 582.619 619.223 577.587 621.589C572.556 623.955 567.071 625.145 561.533 625.073V625.073Z" fill="#F1F1F1"/>
</svg>
